<svg xmlns="http://www.w3.org/2000/svg" viewBox="0 0 880 220" width="880" height="220" role="img" aria-label="poly — trade Polymarket from your terminal">
  <defs>
    <linearGradient id="bg" x1="0" y1="0" x2="0" y2="1">
      <stop offset="0" stop-color="#0b1020"/>
      <stop offset="1" stop-color="#141d33"/>
    </linearGradient>
    <linearGradient id="accent" x1="0" y1="0" x2="1" y2="1">
      <stop offset="0" stop-color="#38bdf8"/>
      <stop offset="1" stop-color="#34d399"/>
    </linearGradient>
    <style>
      .mono { font-family: ui-monospace, "SF Mono", Menlo, Consolas, monospace; }
      .sans { font-family: -apple-system, "Segoe UI", Roboto, Helvetica, Arial, sans-serif; }
    </style>
  </defs>

  <rect x="0" y="0" width="880" height="220" rx="22" fill="url(#bg)"/>
  <rect x="1" y="1" width="878" height="218" rx="21" fill="none" stroke="#27314d" stroke-width="1"/>

  <!-- wordmark -->
  <text x="52" y="112" class="mono" font-size="34" fill="#34d399" font-weight="700">&#10095;</text>
  <text x="88" y="118" class="mono" font-size="78" font-weight="800" fill="url(#accent)">poly</text>

  <!-- tagline -->
  <text x="54" y="158" class="sans" font-size="22" fill="#cbd5e1" font-weight="600">Trade Polymarket from your terminal</text>
  <text x="54" y="186" class="sans" font-size="15" fill="#64748b">markets · search · buy · sell · positions &#160;&#8226;&#160; table or <tspan fill="#94a3b8" class="mono">-o json</tspan></text>

  <!-- candlestick motif -->
  <g stroke-width="2" stroke-linecap="round">
    <line x1="648" y1="60"  x2="648" y2="150" stroke="#334155"/>
    <rect x="640" y="92"  width="16" height="44" rx="2" fill="#34d399"/>
    <line x1="690" y1="48"  x2="690" y2="160" stroke="#334155"/>
    <rect x="682" y="70"  width="16" height="58" rx="2" fill="#34d399"/>
    <line x1="732" y1="66"  x2="732" y2="166" stroke="#334155"/>
    <rect x="724" y="104" width="16" height="40" rx="2" fill="#f87171"/>
    <line x1="774" y1="40"  x2="774" y2="150" stroke="#334155"/>
    <rect x="766" y="56"  width="16" height="64" rx="2" fill="#34d399"/>
    <line x1="816" y1="52"  x2="816" y2="138" stroke="#334155"/>
    <rect x="808" y="64"  width="16" height="50" rx="2" fill="#38bdf8"/>
  </g>
</svg>
